<svg width="64" height="64" viewBox="0 0 64 64" fill="none" xmlns="http://www.w3.org/2000/svg">
  <defs>
    <linearGradient id="badge" x1="8" y1="8" x2="56" y2="56" gradientUnits="userSpaceOnUse">
      <stop offset="0%" stop-color="#fdba74" />
      <stop offset="52%" stop-color="#fb923c" />
      <stop offset="100%" stop-color="#ea580c" />
    </linearGradient>
    <linearGradient id="bowl" x1="16" y1="30" x2="48" y2="48" gradientUnits="userSpaceOnUse">
      <stop offset="0%" stop-color="#fffaf0" />
      <stop offset="100%" stop-color="#fed7aa" />
    </linearGradient>
    <linearGradient id="broth" x1="20" y1="28" x2="44" y2="38" gradientUnits="userSpaceOnUse">
      <stop offset="0%" stop-color="#fed7aa" />
      <stop offset="100%" stop-color="#fb923c" />
    </linearGradient>
    <linearGradient id="steam" x1="24" y1="10" x2="42" y2="26" gradientUnits="userSpaceOnUse">
      <stop offset="0%" stop-color="#fef3c7" />
      <stop offset="100%" stop-color="#f59e0b" />
    </linearGradient>
  </defs>

  <circle cx="32" cy="32" r="26" fill="url(#badge)" />
  <circle cx="32" cy="32" r="21" fill="#fffaf4" fill-opacity="0.96" />

  <path
    d="M17.6 32.3C17.6 29.7 19.7 27.6 22.3 27.6H41.7C44.3 27.6 46.4 29.7 46.4 32.3V38.9C46.4 44.3 42 48.7 36.6 48.7H27.4C22 48.7 17.6 44.3 17.6 38.9V32.3Z"
    fill="url(#bowl)"
    stroke="#ea580c"
    stroke-width="2.2"
  />
  <path
    d="M18.8 32.2C22.5 30.7 25.2 30.1 28.2 30.1C31.2 30.1 33.4 30.6 36.6 32.1C38.4 32.9 40.1 33.2 41.5 33.2C43.2 33.2 44.5 32.8 45.6 32.2V37.2C45.6 42 41.7 45.9 36.9 45.9H28.1C23.3 45.9 19.4 42 19.4 37.2V32.2H18.8Z"
    fill="url(#broth)"
    fill-opacity="0.95"
  />

  <circle cx="27" cy="36.1" r="1.35" fill="#9a3412" />
  <circle cx="37" cy="36.1" r="1.35" fill="#9a3412" />
  <path
    d="M26.7 40.2C28.2 41.8 30 42.6 32 42.6C34 42.6 35.8 41.8 37.3 40.2"
    stroke="#9a3412"
    stroke-width="2"
    stroke-linecap="round"
  />

  <path
    d="M26.2 25C24.8 22.9 25.2 21 27.1 19.1C28.5 17.7 28.8 16.1 27.9 14.5"
    stroke="url(#steam)"
    stroke-width="2.2"
    stroke-linecap="round"
  />
  <path
    d="M32.1 24.3C31 22.6 31.4 20.9 32.9 19.4C34 18.3 34.3 17 33.6 15.5"
    stroke="url(#steam)"
    stroke-width="2.2"
    stroke-linecap="round"
  />
  <path
    d="M38 24.9C36.8 23.2 37.1 21.4 38.6 19.9C39.8 18.6 40.1 17.2 39.3 15.7"
    stroke="url(#steam)"
    stroke-width="2.2"
    stroke-linecap="round"
  />
</svg>
